<?xml version="1.0" encoding="UTF-8"?>
<svg xmlns="http://www.w3.org/2000/svg" xmlns:xlink="http://www.w3.org/1999/xlink" width="188px" height="150px" viewBox="0 0 480 384" version="1.1">
<g id="surface1">
<path style=" stroke:none;fill-rule:nonzero;fill:rgb(0%,0%,0%);fill-opacity:1;" d="M 294.601562 0.898438 C 281.851562 -2.773438 268.574219 4.648438 264.898438 17.398438 L 168.898438 353.398438 C 165.226562 366.148438 172.648438 379.425781 185.398438 383.101562 C 198.148438 386.773438 211.425781 379.351562 215.101562 366.601562 L 311.101562 30.601562 C 314.773438 17.851562 307.351562 4.574219 294.601562 0.898438 Z M 355.050781 90.976562 C 345.675781 100.351562 345.675781 115.574219 355.050781 124.949219 L 422.023438 192 L 354.976562 259.050781 C 345.601562 268.425781 345.601562 283.648438 354.976562 293.023438 C 364.351562 302.398438 379.574219 302.398438 388.949219 293.023438 L 472.949219 209.023438 C 482.324219 199.648438 482.324219 184.425781 472.949219 175.050781 L 388.949219 91.050781 C 379.574219 81.675781 364.351562 81.675781 354.976562 91.050781 Z M 125.023438 90.976562 C 115.648438 81.601562 100.425781 81.601562 91.050781 90.976562 L 7.050781 174.976562 C -2.324219 184.351562 -2.324219 199.574219 7.050781 208.949219 L 91.050781 292.949219 C 100.425781 302.324219 115.648438 302.324219 125.023438 292.949219 C 134.398438 283.574219 134.398438 268.351562 125.023438 258.976562 L 57.976562 192 L 125.023438 124.949219 C 134.398438 115.574219 134.398438 100.351562 125.023438 90.976562 Z M 125.023438 90.976562 "/>
</g>
</svg>
